<svg id="Layer_1" data-name="Layer 1" xmlns="http://www.w3.org/2000/svg" xmlns:xlink="http://www.w3.org/1999/xlink" viewBox="0 0 526.08 759.45"><defs><style>.cls-1{fill:#c6c6c6;}.cls-16,.cls-2{font-size:11.63px;}.cls-11,.cls-2,.cls-5,.cls-90{fill:#3e4999;}.cls-12,.cls-16,.cls-2{font-family:Calibri;}.cls-3{font-size:17.44px;}.cls-15,.cls-3{font-family:Calibri-Bold, Calibri;font-weight:700;}.cls-101,.cls-4{fill:none;}.cls-11,.cls-4,.cls-90{stroke:#3e4999;}.cls-100,.cls-11,.cls-4,.cls-90{stroke-miterlimit:10;}.cls-6,.cls-8{font-size:14.25px;font-family:SegoePrint, Segoe Print;}.cls-12,.cls-15,.cls-6,.cls-7,.cls-8{fill:#fff;}.cls-8{letter-spacing:-0.06em;}.cls-9{letter-spacing:0em;}.cls-10{letter-spacing:0.01em;}.cls-12{font-size:13.57px;}.cls-13{letter-spacing:-0.01em;}.cls-14{letter-spacing:-0.01em;}.cls-15{font-size:15.5px;}.cls-100,.cls-16{fill:#1d1d1b;}.cls-17{letter-spacing:-0.01em;}.cls-18{letter-spacing:-0.01em;}.cls-19{letter-spacing:0em;}.cls-20{letter-spacing:-0.01em;}.cls-21{letter-spacing:-0.02em;}.cls-22{letter-spacing:-0.01em;}.cls-23{letter-spacing:0em;}.cls-24{letter-spacing:-0.02em;}.cls-25{letter-spacing:-0.07em;}.cls-26{letter-spacing:-0.02em;}.cls-27{letter-spacing:-0.02em;}.cls-28{letter-spacing:-0.01em;}.cls-29{letter-spacing:-0.03em;}.cls-30{letter-spacing:-0.01em;}.cls-31{letter-spacing:-0.01em;}.cls-32{letter-spacing:-0.07em;}.cls-33{letter-spacing:-0.01em;}.cls-34{letter-spacing:0em;}.cls-35{letter-spacing:-0.01em;}.cls-36{letter-spacing:-0.02em;}.cls-37{letter-spacing:-0.02em;}.cls-38{letter-spacing:0em;}.cls-39{letter-spacing:0.01em;}.cls-40{letter-spacing:-0.01em;}.cls-41{letter-spacing:-0.01em;}.cls-42{letter-spacing:-0.01em;}.cls-43{letter-spacing:0em;}.cls-44{letter-spacing:-0.02em;}.cls-45{letter-spacing:0.03em;}.cls-46{letter-spacing:-0.06em;}.cls-47{letter-spacing:-0.01em;}.cls-48{letter-spacing:-0.01em;}.cls-49{letter-spacing:-0.01em;}.cls-50{letter-spacing:-0.02em;}.cls-51{letter-spacing:-0.02em;}.cls-52{letter-spacing:-0.01em;}.cls-53{letter-spacing:-0.07em;}.cls-54{letter-spacing:-0.01em;}.cls-55{letter-spacing:0em;}.cls-56{letter-spacing:-0.02em;}.cls-57{letter-spacing:-0.01em;}.cls-58{letter-spacing:-0.01em;}.cls-59{letter-spacing:-0.01em;}.cls-60{letter-spacing:-0.02em;}.cls-61{letter-spacing:0.01em;}.cls-62{letter-spacing:0em;}.cls-63{letter-spacing:-0.02em;}.cls-64{letter-spacing:-0.02em;}.cls-65{letter-spacing:0em;}.cls-66{letter-spacing:-0.09em;}.cls-67{letter-spacing:-0.01em;}.cls-68{letter-spacing:-0.06em;}.cls-69{letter-spacing:-0.01em;}.cls-70{letter-spacing:0em;}.cls-71{letter-spacing:0.03em;}.cls-72{letter-spacing:-0.02em;}.cls-73{letter-spacing:-0.01em;}.cls-74{letter-spacing:-0.01em;}.cls-75{letter-spacing:-0.02em;}.cls-76{letter-spacing:-0.02em;}.cls-77{letter-spacing:-0.01em;}.cls-78{letter-spacing:-0.02em;}.cls-79{letter-spacing:-0.02em;}.cls-80{letter-spacing:-0.04em;}.cls-81{letter-spacing:-0.02em;}.cls-82{letter-spacing:-0.01em;}.cls-83{letter-spacing:-0.02em;}.cls-84{letter-spacing:-0.03em;}.cls-85{letter-spacing:-0.03em;}.cls-86{letter-spacing:-0.01em;}.cls-87{letter-spacing:-0.07em;}.cls-88{letter-spacing:-0.03em;}.cls-89{letter-spacing:0em;}.cls-90{stroke-width:0.75px;}.cls-91{letter-spacing:-0.01em;}.cls-92{letter-spacing:0em;}.cls-93{letter-spacing:-0.09em;}.cls-94{letter-spacing:-0.02em;}.cls-95{letter-spacing:-0.02em;}.cls-96{letter-spacing:-0.01em;}.cls-97{letter-spacing:-0.01em;}.cls-98{letter-spacing:0.01em;}.cls-99{letter-spacing:0em;}.cls-100{stroke:#1d1d1b;}</style></defs><title>PATHY Template - Persona 1 - Susan</title><image width="195" height="314" transform="matrix(-0.38, 0, 0, 0.38, 296.01, 226.88)" xlink:href="../../../../Misc/XKCD/xkcd_danish.png"/><rect class="cls-1" x="141.93" y="274.3" width="85.31" height="44" rx="7.68"/><polygon class="cls-1" points="210.83 266.01 231.49 257.73 217.94 274.3 190.16 274.3 210.83 266.01"/><text class="cls-2" transform="translate(156.77 289.37)">My name is<tspan class="cls-3"><tspan x="0" y="20.93">Susan</tspan></tspan></text><rect class="cls-4" x="0.5" y="36.85" width="525.08" height="509.31"/><line class="cls-4" x1="0.5" y1="346" x2="525.58" y2="346"/><rect class="cls-5" x="9.6" y="46.24" width="39.67" height="20.76"/><text class="cls-6" transform="translate(19.29 61.46)">Do</text><path class="cls-7" d="M199,209.68c3.21,0,3.22-5,0-5s-3.23,5,0,5Z" transform="translate(-33.21 -24.97)"/><path class="cls-7" d="M492.66,30c3.22,0,3.23-5,0-5s-3.22,5,0,5Z" transform="translate(-33.21 -24.97)"/><rect class="cls-5" x="268.72" y="46.24" width="151.21" height="20.76"/><text class="cls-6" transform="translate(278.4 61.46)">Feel/Think/Believe</text><rect class="cls-5" x="8.61" y="353.46" width="181.58" height="22.63"/><text class="cls-8" transform="translate(18.3 368.68)">T<tspan class="cls-9" x="8.74" y="0">echnology Expe</tspan><tspan class="cls-10" x="118.26" y="0">r</tspan><tspan class="cls-9" x="125.65" y="0">ience</tspan></text><line class="cls-11" x1="258.74" y1="36.87" x2="259.69" y2="224.01"/><path class="cls-11" d="M357.41,17.56H522.46a3.12,3.12,0,0,1,3.12,3.12V36.85a0,0,0,0,1,0,0H354.31a0,0,0,0,1,0,0V20.67A3.11,3.11,0,0,1,357.41,17.56Z"/><text class="cls-12" transform="translate(360.49 30.69) scale(1.14 1)">A<tspan class="cls-13" x="7.85" y="0">g</tspan><tspan x="14.12" y="0" xml:space="preserve">e: 58   Gender: </tspan><tspan class="cls-14" x="98.26" y="0">F</tspan><tspan x="104.3" y="0">emale</tspan></text><path class="cls-7" d="M147.78,30c3.22,0,3.22-5,0-5s-3.22,5,0,5Z" transform="translate(-33.21 -24.97)"/><path class="cls-11" d="M3.59,15H56.76a3.13,3.13,0,0,1,3.13,3.13V36.85a0,0,0,0,1,0,0H.5a0,0,0,0,1,0,0V18A3.09,3.09,0,0,1,3.59,15Z"/><text class="cls-15" transform="translate(8.66 30.69) scale(1.14 1)">Susan</text><text class="cls-16" transform="translate(14.21 89.69)">I li<tspan class="cls-17" x="10.9" y="0">v</tspan><tspan x="16.03" y="0">e in the Midlands in the UK and </tspan><tspan class="cls-18" x="167.01" y="0">w</tspan><tspan class="cls-19" x="175.21" y="0">ork as an </tspan><tspan x="0" y="13.95">admini</tspan><tspan class="cls-20" x="32.42" y="13.95">s</tspan><tspan x="36.83" y="13.95">t</tspan><tspan class="cls-21" x="40.73" y="13.95">r</tspan><tspan class="cls-18" x="44.54" y="13.95">a</tspan><tspan class="cls-22" x="50.01" y="13.95">t</tspan><tspan x="53.79" y="13.95">or </tspan><tspan class="cls-18" x="66.6" y="13.95">a</tspan><tspan x="72.07" y="13.95">t the near</tspan><tspan class="cls-23" x="118.53" y="13.95">b</tspan><tspan x="124.58" y="13.95">y uni</tspan><tspan class="cls-22" x="147.36" y="13.95">v</tspan><tspan x="152.5" y="13.95">e</tspan><tspan class="cls-24" x="158.29" y="13.95">r</tspan><tspan x="162.14" y="13.95">sit</tspan><tspan class="cls-25" x="173.25" y="13.95">y</tspan><tspan x="177.75" y="13.95">.</tspan><tspan x="0" y="35.66">I</tspan><tspan class="cls-26" x="2.93" y="35.66">’</tspan><tspan x="5.58" y="35.66">m married and h</tspan><tspan class="cls-27" x="84.18" y="35.66">a</tspan><tspan class="cls-22" x="89.56" y="35.66">v</tspan><tspan x="94.7" y="35.66">e t</tspan><tspan class="cls-18" x="107.01" y="35.66">w</tspan><tspan x="115.21" y="35.66">o child</tspan><tspan class="cls-28" x="146.45" y="35.66">r</tspan><tspan x="150.35" y="35.66">en – unli</tspan><tspan class="cls-29" x="190.85" y="35.66">k</tspan><tspan x="195.76" y="35.66">e me </tspan><tspan x="0" y="49.62">th</tspan><tspan class="cls-30" x="10" y="49.62">e</tspan><tspan x="15.72" y="49.62">y both </tspan><tspan class="cls-31" x="48.48" y="49.62">w</tspan><tspan x="56.69" y="49.62">e</tspan><tspan class="cls-18" x="62.48" y="49.62">n</tspan><tspan x="68.48" y="49.62">t </tspan><tspan class="cls-17" x="75.01" y="49.62">t</tspan><tspan x="78.79" y="49.62">o uni</tspan><tspan class="cls-17" x="102.44" y="49.62">v</tspan><tspan x="107.57" y="49.62">e</tspan><tspan class="cls-24" x="113.36" y="49.62">r</tspan><tspan x="117.22" y="49.62">sit</tspan><tspan class="cls-32" x="128.33" y="49.62">y</tspan><tspan x="132.83" y="49.62" xml:space="preserve">.  Since g</tspan><tspan class="cls-21" x="173.95" y="49.62">r</tspan><tspan x="177.76" y="49.62">adu</tspan><tspan class="cls-18" x="195.55" y="49.62">a</tspan><tspan x="201.01" y="49.62">ting </tspan><tspan x="0" y="63.57">one s</tspan><tspan class="cls-33" x="25.21" y="63.57">e</tspan><tspan x="30.93" y="63.57">ttled d</tspan><tspan class="cls-34" x="61.61" y="63.57">o</tspan><tspan x="67.69" y="63.57">wn qui</tspan><tspan class="cls-35" x="99.63" y="63.57">t</tspan><tspan x="103.4" y="63.57">e close but the other li</tspan><tspan class="cls-22" x="209.6" y="63.57">v</tspan><tspan x="214.74" y="63.57">es </tspan><tspan x="0" y="77.52">and </tspan><tspan class="cls-18" x="20.42" y="77.52">w</tspan><tspan x="28.62" y="77.52">or</tspan><tspan class="cls-18" x="38.81" y="77.52">k</tspan><tspan x="43.99" y="77.52">s in London.</tspan><tspan x="0" y="99.23">I h</tspan><tspan class="cls-36" x="11.67" y="99.23">a</tspan><tspan class="cls-17" x="17.05" y="99.23">v</tspan><tspan x="22.18" y="99.23">e a </tspan><tspan class="cls-37" x="38.8" y="99.23">f</tspan><tspan class="cls-38" x="42.06" y="99.23">e</tspan><tspan x="47.79" y="99.23">w hobbies outside of </tspan><tspan class="cls-18" x="149.01" y="99.23">w</tspan><tspan x="157.21" y="99.23">ork – bakin</tspan><tspan class="cls-39" x="209.48" y="99.23">g</tspan><tspan x="215.08" y="99.23">, </tspan><tspan class="cls-35" x="0" y="113.19">t</tspan><tspan x="3.77" y="113.19">ennis and </tspan><tspan class="cls-40" x="52.04" y="113.19">g</tspan><tspan class="cls-41" x="57.42" y="113.19">e</tspan><tspan x="63.14" y="113.19">tting out i</tspan><tspan class="cls-18" x="108.74" y="113.19">n</tspan><tspan class="cls-17" x="114.74" y="113.19">t</tspan><tspan x="118.52" y="113.19">o the lo</tspan><tspan class="cls-40" x="154.5" y="113.19">c</tspan><tspan x="159.32" y="113.19">al </tspan><tspan class="cls-42" x="170.19" y="113.19">c</tspan><tspan x="175.01" y="113.19">ou</tspan><tspan class="cls-18" x="187.25" y="113.19">n</tspan><tspan x="193.26" y="113.19">t</tspan><tspan class="cls-43" x="197.15" y="113.19">r</tspan><tspan class="cls-18" x="201.26" y="113.19">y</tspan><tspan x="206.42" y="113.19">side.</tspan></text><text class="cls-16" transform="translate(275.31 89.69)">While I enj<tspan class="cls-33" x="50.44" y="0">o</tspan><tspan x="56.51" y="0">y </tspan><tspan class="cls-44" x="64.41" y="0">m</tspan><tspan x="73.48" y="0">y job, i</tspan><tspan class="cls-45" x="104.59" y="0">t</tspan><tspan class="cls-46" x="108.89" y="0">’</tspan><tspan x="111.08" y="0">s not the mo</tspan><tspan class="cls-47" x="170.87" y="0">s</tspan><tspan x="175.29" y="0">t impor</tspan><tspan class="cls-48" x="210.06" y="0">t</tspan><tspan x="213.82" y="0">a</tspan><tspan class="cls-49" x="219.39" y="0">n</tspan><tspan x="225.39" y="0">t </tspan><tspan x="0" y="13.95">thing in </tspan><tspan class="cls-44" x="38.29" y="13.95">m</tspan><tspan x="47.37" y="13.95">y li</tspan><tspan class="cls-50" x="60.6" y="13.95">f</tspan><tspan x="63.86" y="13.95">e; I h</tspan><tspan class="cls-27" x="87.05" y="13.95">a</tspan><tspan class="cls-22" x="92.43" y="13.95">v</tspan><tspan x="97.57" y="13.95">e no t</tspan><tspan class="cls-51" x="124.75" y="13.95">r</tspan><tspan x="128.61" y="13.95">ouble </tspan><tspan class="cls-38" x="158.05" y="13.95">s</tspan><tspan x="162.54" y="13.95">wi</tspan><tspan class="cls-52" x="173.52" y="13.95">t</tspan><tspan x="177.27" y="13.95">ching off </tspan><tspan class="cls-49" x="220.73" y="13.95">a</tspan><tspan x="226.19" y="13.95">t </tspan><tspan x="0" y="27.91">the end of the d</tspan><tspan class="cls-44" x="75.89" y="27.91">a</tspan><tspan class="cls-53" x="81.25" y="27.91">y</tspan><tspan x="85.68" y="27.91">, </tspan><tspan class="cls-38" x="91.21" y="27.91">e</tspan><tspan class="cls-22" x="96.94" y="27.91">v</tspan><tspan x="102.08" y="27.91">en when i</tspan><tspan class="cls-45" x="148.22" y="27.91">t</tspan><tspan class="cls-46" x="152.52" y="27.91">’</tspan><tspan x="154.71" y="27.91">s been </tspan><tspan class="cls-54" x="188.31" y="27.91">v</tspan><tspan class="cls-55" x="193.44" y="27.91">e</tspan><tspan class="cls-43" x="199.23" y="27.91">r</tspan><tspan x="203.34" y="27.91">y </tspan><tspan x="0" y="41.86">bu</tspan><tspan class="cls-56" x="12.22" y="41.86">s</tspan><tspan class="cls-25" x="16.56" y="41.86">y</tspan><tspan x="21.05" y="41.86" xml:space="preserve">.  When I socialise with </tspan><tspan class="cls-57" x="131.54" y="41.86">w</tspan><tspan x="139.74" y="41.86">ork </tspan><tspan class="cls-58" x="157.84" y="41.86">c</tspan><tspan x="162.66" y="41.86">olleagues </tspan><tspan class="cls-59" x="210.04" y="41.86">w</tspan><tspan x="218.25" y="41.86">e </tspan><tspan class="cls-60" x="0" y="55.82">r</tspan><tspan x="3.82" y="55.82">a</tspan><tspan class="cls-28" x="9.39" y="55.82">r</tspan><tspan x="13.29" y="55.82">ely </tspan><tspan class="cls-52" x="29.63" y="55.82">t</tspan><tspan x="33.39" y="55.82">alk about </tspan><tspan class="cls-49" x="79.99" y="55.82">w</tspan><tspan x="88.19" y="55.82">ork (othe</tspan><tspan class="cls-61" x="131.74" y="55.82">r</tspan><tspan x="135.86" y="55.82">wise I p</tspan><tspan class="cls-51" x="171.47" y="55.82">r</tspan><tspan x="175.34" y="55.82">obably </tspan><tspan class="cls-49" x="0" y="69.77">w</tspan><tspan x="8.21" y="69.77">ouldn’t socialise with them).</tspan><tspan x="0" y="91.48">I kn</tspan><tspan class="cls-62" x="16.95" y="91.48">o</tspan><tspan x="23.04" y="91.48">w </tspan><tspan class="cls-63" x="33.98" y="91.48">m</tspan><tspan x="43.06" y="91.48">y child</tspan><tspan class="cls-28" x="73.42" y="91.48">r</tspan><tspan x="77.32" y="91.48">en lead bu</tspan><tspan class="cls-64" x="126.83" y="91.48">s</tspan><tspan x="131.17" y="91.48">y li</tspan><tspan class="cls-22" x="144.4" y="91.48">v</tspan><tspan x="149.54" y="91.48">es n</tspan><tspan class="cls-65" x="168.61" y="91.48">o</tspan><tspan class="cls-66" x="174.69" y="91.48">w</tspan><tspan x="182.01" y="91.48">, but I </tspan><tspan x="0" y="105.43">miss seeing as much of them as I used </tspan><tspan class="cls-22" x="181.99" y="105.43">t</tspan><tspan class="cls-56" x="185.77" y="105.43">o</tspan><tspan x="191.69" y="105.43">, </tspan><tspan x="0" y="119.39">particularly the </tspan><tspan class="cls-67" x="74.51" y="119.39">y</tspan><tspan x="79.64" y="119.39">oun</tspan><tspan class="cls-58" x="97.99" y="119.39">g</tspan><tspan x="103.37" y="119.39">e</tspan><tspan class="cls-47" x="109.15" y="119.39">s</tspan><tspan x="113.57" y="119.39">t who is in London n</tspan><tspan class="cls-62" x="208.75" y="119.39">o</tspan><tspan class="cls-68" x="214.84" y="119.39">w</tspan><tspan x="222.41" y="119.39" xml:space="preserve">.  </tspan><tspan x="0" y="133.34">Th</tspan><tspan class="cls-69" x="11.78" y="133.34">e</tspan><tspan x="17.49" y="133.34">y do t</tspan><tspan class="cls-70" x="44.15" y="133.34">r</tspan><tspan x="48.26" y="133.34">y and </tspan><tspan class="cls-29" x="76.57" y="133.34">k</tspan><tspan x="81.48" y="133.34">eep in </tspan><tspan class="cls-22" x="113.2" y="133.34">t</tspan><tspan x="116.98" y="133.34">ouch but I don’t al</tspan><tspan class="cls-47" x="203.19" y="133.34">w</tspan><tspan class="cls-44" x="211.38" y="133.34">a</tspan><tspan class="cls-57" x="216.73" y="133.34">y</tspan><tspan x="221.88" y="133.34">s </tspan><tspan x="0" y="147.3">kn</tspan><tspan class="cls-62" x="11.4" y="147.3">o</tspan><tspan x="17.48" y="147.3">w wh</tspan><tspan class="cls-49" x="42.84" y="147.3">a</tspan><tspan x="48.31" y="147.3">t th</tspan><tspan class="cls-69" x="64.84" y="147.3">e</tspan><tspan class="cls-71" x="70.55" y="147.3">y</tspan><tspan class="cls-72" x="76.17" y="147.3">’</tspan><tspan class="cls-28" x="78.81" y="147.3">r</tspan><tspan x="82.71" y="147.3">e up </tspan><tspan class="cls-22" x="105.97" y="147.3">t</tspan><tspan x="109.76" y="147.3">o or h</tspan><tspan class="cls-65" x="137.44" y="147.3">o</tspan><tspan x="143.53" y="147.3">w th</tspan><tspan class="cls-69" x="164.47" y="147.3">e</tspan><tspan x="170.19" y="147.3">y a</tspan><tspan class="cls-28" x="183.65" y="147.3">r</tspan><tspan x="187.55" y="147.3">e doing.</tspan></text><text class="cls-16" transform="translate(313.16 264.35)">I <tspan class="cls-28" x="5.56" y="0">r</tspan><tspan x="9.46" y="0">eally enj</tspan><tspan class="cls-33" x="48.72" y="0">o</tspan><tspan x="54.79" y="0">y </tspan><tspan class="cls-44" x="62.69" y="0">m</tspan><tspan x="71.76" y="0">y </tspan><tspan class="cls-35" x="79.65" y="0">t</tspan><tspan x="83.42" y="0">ennis and spend a lot </tspan><tspan x="0" y="13.95">of time helping o</tspan><tspan class="cls-73" x="80.18" y="13.95">r</tspan><tspan class="cls-44" x="84.07" y="13.95">g</tspan><tspan x="89.33" y="13.95">anise club </tspan><tspan class="cls-38" x="139.08" y="13.95">e</tspan><tspan class="cls-22" x="144.81" y="13.95">v</tspan><tspan x="149.94" y="13.95">e</tspan><tspan class="cls-57" x="155.73" y="13.95">n</tspan><tspan x="161.73" y="13.95">ts.</tspan><tspan x="0" y="35.66">I</tspan><tspan class="cls-72" x="2.93" y="35.66">’</tspan><tspan x="5.58" y="35.66">m not al</tspan><tspan class="cls-74" x="44.5" y="35.66">w</tspan><tspan class="cls-44" x="52.68" y="35.66">a</tspan><tspan class="cls-57" x="58.04" y="35.66">y</tspan><tspan x="63.19" y="35.66">s e</tspan><tspan class="cls-49" x="76.15" y="35.66">n</tspan><tspan x="82.16" y="35.66">ti</tspan><tspan class="cls-28" x="88.63" y="35.66">r</tspan><tspan x="92.53" y="35.66">ely on </tspan><tspan class="cls-54" x="123.75" y="35.66">t</tspan><tspan class="cls-55" x="127.53" y="35.66">op of things </tspan><tspan x="0" y="49.62">in </tspan><tspan class="cls-44" x="11.41" y="49.62">m</tspan><tspan x="20.48" y="49.62">y pe</tspan><tspan class="cls-75" x="40.27" y="49.62">r</tspan><tspan x="44.12" y="49.62">sonal li</tspan><tspan class="cls-76" x="77.12" y="49.62">f</tspan><tspan x="80.38" y="49.62">e be</tspan><tspan class="cls-40" x="100.69" y="49.62">c</tspan><tspan x="105.51" y="49.62">ause I don’t check </tspan><tspan class="cls-44" x="0" y="63.57">m</tspan><tspan x="9.07" y="63.57">y email o</tspan><tspan class="cls-35" x="51.71" y="63.57">ft</tspan><tspan x="58.75" y="63.57">en enough.</tspan></text><text class="cls-16" transform="translate(13.22 394.78)">I use a des<tspan class="cls-38" x="49.27" y="0">k</tspan><tspan class="cls-17" x="54.5" y="0">t</tspan><tspan x="58.29" y="0">op </tspan><tspan class="cls-40" x="73.16" y="0">c</tspan><tspan x="77.98" y="0">ompu</tspan><tspan class="cls-77" x="105.62" y="0">t</tspan><tspan x="109.39" y="0">er </tspan><tspan class="cls-18" x="121.86" y="0">a</tspan><tspan x="127.32" y="0">t </tspan><tspan class="cls-18" x="133.84" y="0">w</tspan><tspan x="142.05" y="0">ork </tspan><tspan class="cls-78" x="160.15" y="0">f</tspan><tspan x="163.45" y="0">or admin, email and m</tspan><tspan class="cls-44" x="269.87" y="0">a</tspan><tspan x="275.22" y="0">ybe a little </tspan><tspan class="cls-59" x="327" y="0">w</tspan><tspan x="335.21" y="0">eb b</tspan><tspan class="cls-79" x="355.85" y="0">r</tspan><tspan class="cls-62" x="359.72" y="0">o</tspan><tspan class="cls-59" x="365.8" y="0">w</tspan><tspan x="374.01" y="0" xml:space="preserve">sing.  </tspan><tspan class="cls-80" x="401" y="0">W</tspan><tspan x="410.92" y="0">e h</tspan><tspan class="cls-81" x="425.45" y="0">a</tspan><tspan class="cls-54" x="430.83" y="0">v</tspan><tspan x="435.96" y="0">e one </tspan><tspan class="cls-49" x="465.04" y="0">a</tspan><tspan x="470.5" y="0">t home </tspan><tspan class="cls-17" x="0" y="13.95">t</tspan><tspan x="3.78" y="13.95">o</tspan><tspan class="cls-56" x="9.91" y="13.95">o</tspan><tspan x="15.84" y="13.95">, but i</tspan><tspan class="cls-45" x="42.78" y="13.95">t</tspan><tspan class="cls-46" x="47.08" y="13.95">’</tspan><tspan x="49.27" y="13.95">s mo</tspan><tspan class="cls-20" x="71.87" y="13.95">s</tspan><tspan x="76.28" y="13.95">tly </tspan><tspan class="cls-44" x="90.74" y="13.95">m</tspan><tspan x="99.81" y="13.95">y husband on th</tspan><tspan class="cls-18" x="175.88" y="13.95">a</tspan><tspan x="181.34" y="13.95">t.</tspan><tspan x="0" y="35.66">I</tspan><tspan class="cls-28" x="2.93" y="35.66">’</tspan><tspan class="cls-17" x="5.68" y="35.66">v</tspan><tspan x="10.82" y="35.66">e had IT t</tspan><tspan class="cls-60" x="54.77" y="35.66">r</tspan><tspan x="58.59" y="35.66">aining </tspan><tspan class="cls-18" x="89.81" y="35.66">a</tspan><tspan x="95.28" y="35.66">t </tspan><tspan class="cls-18" x="101.8" y="35.66">w</tspan><tspan x="110" y="35.66">ork and </tspan><tspan class="cls-42" x="148.52" y="35.66">g</tspan><tspan class="cls-33" x="153.9" y="35.66">e</tspan><tspan x="159.63" y="35.66">t along fine with </tspan><tspan class="cls-40" x="239.03" y="35.66">c</tspan><tspan x="243.85" y="35.66">ompu</tspan><tspan class="cls-35" x="271.49" y="35.66">t</tspan><tspan x="275.26" y="35.66">e</tspan><tspan class="cls-75" x="281.04" y="35.66">r</tspan><tspan x="284.9" y="35.66">s – although I p</tspan><tspan class="cls-28" x="356.86" y="35.66">r</tspan><tspan class="cls-59" x="360.76" y="35.66">e</tspan><tspan class="cls-50" x="366.45" y="35.66">f</tspan><tspan x="369.71" y="35.66">er </tspan><tspan class="cls-54" x="382.17" y="35.66">t</tspan><tspan x="385.96" y="35.66">o </tspan><tspan class="cls-74" x="394.72" y="35.66">s</tspan><tspan class="cls-52" x="399.13" y="35.66">t</tspan><tspan class="cls-44" x="402.89" y="35.66">a</tspan><tspan x="408.24" y="35.66">y in </tspan><tspan class="cls-44" x="427.54" y="35.66">m</tspan><tspan x="436.62" y="35.66">y </tspan><tspan class="cls-58" x="444.51" y="35.66">c</tspan><tspan x="449.33" y="35.66">o</tspan><tspan class="cls-82" x="455.46" y="35.66">m</tspan><tspan class="cls-78" x="464.68" y="35.66">f</tspan><tspan x="467.99" y="35.66">ort </tspan><tspan class="cls-26" x="0" y="49.62">z</tspan><tspan x="4.34" y="49.62">one.</tspan><tspan x="0" y="71.32">My son made me </tspan><tspan class="cls-40" x="84.34" y="71.32">g</tspan><tspan class="cls-33" x="89.72" y="71.32">e</tspan><tspan x="95.44" y="71.32" xml:space="preserve">t one of those smartphones.  I didn’t </tspan><tspan class="cls-28" x="270.36" y="71.32">r</tspan><tspan x="274.26" y="71.32">eally see the poi</tspan><tspan class="cls-49" x="350.93" y="71.32">n</tspan><tspan x="356.93" y="71.32">t </tspan><tspan class="cls-57" x="363.45" y="71.32">a</tspan><tspan x="368.92" y="71.32">t fi</tspan><tspan class="cls-75" x="381.6" y="71.32">r</tspan><tspan class="cls-47" x="385.45" y="71.32">s</tspan><tspan x="389.87" y="71.32">t, but it is actually qui</tspan><tspan class="cls-35" x="491.26" y="71.32">t</tspan><tspan x="495.03" y="71.32">e </tspan><tspan x="0" y="85.28">us</tspan><tspan class="cls-31" x="10.66" y="85.28">e</tspan><tspan x="16.34" y="85.28">ful </tspan><tspan class="cls-78" x="31.3" y="85.28">f</tspan><tspan x="34.6" y="85.28">or </tspan><tspan class="cls-47" x="47.42" y="85.28">s</tspan><tspan class="cls-48" x="51.83" y="85.28">t</tspan><tspan class="cls-44" x="55.59" y="85.28">a</tspan><tspan x="60.94" y="85.28">ying in </tspan><tspan class="cls-17" x="94.49" y="85.28">t</tspan><tspan x="98.27" y="85.28">ouch and o</tspan><tspan class="cls-73" x="150.72" y="85.28">r</tspan><tspan class="cls-83" x="154.62" y="85.28">g</tspan><tspan x="159.88" y="85.28" xml:space="preserve">anising things.  I think I mo</tspan><tspan class="cls-47" x="285.88" y="85.28">s</tspan><tspan x="290.3" y="85.28">tly use </tspan><tspan class="cls-84" x="323.83" y="85.28">F</tspan><tspan x="328.86" y="85.28">acebook and Wh</tspan><tspan class="cls-57" x="408.3" y="85.28">a</tspan><tspan x="413.76" y="85.28">tsApp as </tspan><tspan class="cls-59" x="456.53" y="85.28">w</tspan><tspan x="464.74" y="85.28">ell as </tspan><tspan x="0" y="99.23">things li</tspan><tspan class="cls-85" x="36.77" y="99.23">k</tspan><tspan x="41.68" y="99.23">e the </tspan><tspan class="cls-59" x="68.52" y="99.23">w</tspan><tspan x="76.73" y="99.23">e</tspan><tspan class="cls-18" x="82.51" y="99.23">a</tspan><tspan x="87.97" y="99.23">ther app.</tspan><tspan x="0" y="120.94">I admit I do use </tspan><tspan class="cls-84" x="75.22" y="120.94">F</tspan><tspan x="80.25" y="120.94">acebook qui</tspan><tspan class="cls-77" x="137.7" y="120.94">t</tspan><tspan x="141.47" y="120.94">e a lot, but the</tspan><tspan class="cls-28" x="210.85" y="120.94">r</tspan><tspan x="214.75" y="120.94">e a</tspan><tspan class="cls-28" x="228.73" y="120.94">r</tspan><tspan x="232.63" y="120.94">e a lot of </tspan><tspan class="cls-47" x="276.88" y="120.94">s</tspan><tspan class="cls-22" x="281.3" y="120.94">t</tspan><tspan x="285.08" y="120.94">ories about h</tspan><tspan class="cls-65" x="347.45" y="120.94">o</tspan><tspan x="353.54" y="120.94">w much th</tspan><tspan class="cls-69" x="403.54" y="120.94">e</tspan><tspan x="409.25" y="120.94">y kn</tspan><tspan class="cls-62" x="428.54" y="120.94">o</tspan><tspan x="434.63" y="120.94">w about </tspan><tspan class="cls-86" x="476.01" y="120.94">y</tspan><tspan x="481.14" y="120.94">ou </tspan><tspan x="0" y="134.89">and wh</tspan><tspan class="cls-18" x="34.84" y="134.89">a</tspan><tspan x="40.3" y="134.89">t th</tspan><tspan class="cls-30" x="56.83" y="134.89">e</tspan><tspan x="62.54" y="134.89">y do with th</tspan><tspan class="cls-18" x="118.92" y="134.89">a</tspan><tspan x="124.39" y="134.89" xml:space="preserve">t.  If it </tspan><tspan class="cls-20" x="154.78" y="134.89">w</tspan><tspan x="162.96" y="134.89">asn’t so hand</tspan><tspan class="cls-53" x="225.82" y="134.89">y</tspan><tspan x="230.25" y="134.89">, I</tspan><tspan class="cls-87" x="238.71" y="134.89">’</tspan><tspan x="240.79" y="134.89">d use it a lot less.</tspan></text><rect class="cls-4" x="0.5" y="561.68" width="525.08" height="197.27"/><rect class="cls-5" x="17.35" y="571.17" width="143.15" height="22.63"/><text class="cls-6" transform="translate(58.15 586.12)"><tspan class="cls-88">P</tspan><tspan x="9.65" y="0">roblems</tspan></text><rect class="cls-5" x="189.9" y="571.17" width="143.15" height="22.63"/><text class="cls-6" transform="translate(238.22 586.25)">Needs</text><rect class="cls-5" x="362.48" y="571.17" width="143.15" height="22.63"/><text class="cls-6" transform="translate(372.16 586.39)">Existing <tspan class="cls-89" x="61.71" y="0">S</tspan><tspan x="70.73" y="0">olutions</tspan></text><line class="cls-90" x1="173.69" y1="606.89" x2="175.21" y2="759.01"/><line class="cls-90" x1="346.03" y1="605.91" x2="347.56" y2="758.04"/><text class="cls-16" transform="translate(14.21 616.37)">Not as <tspan class="cls-91" x="32.91" y="0">a</tspan><tspan class="cls-20" x="38.4" y="0">w</tspan><tspan x="46.58" y="0">a</tspan><tspan class="cls-28" x="52.15" y="0">r</tspan><tspan x="56.05" y="0">e of her adult </tspan><tspan x="0" y="13.95">child</tspan><tspan class="cls-28" x="22.47" y="13.95">r</tspan><tspan x="26.37" y="13.95">ens’ activities and d</tspan><tspan class="cls-44" x="119.2" y="13.95">a</tspan><tspan x="124.56" y="13.95">y </tspan><tspan class="cls-22" x="132.45" y="13.95">t</tspan><tspan x="136.23" y="13.95">o </tspan><tspan x="0" y="27.91">d</tspan><tspan class="cls-44" x="6.11" y="27.91">a</tspan><tspan x="11.46" y="27.91">y li</tspan><tspan class="cls-22" x="24.69" y="27.91">v</tspan><tspan x="29.83" y="27.91">es as she </tspan><tspan class="cls-18" x="74.62" y="27.91">w</tspan><tspan x="82.82" y="27.91">ould li</tspan><tspan class="cls-29" x="111.81" y="27.91">k</tspan><tspan x="116.72" y="27.91">e </tspan><tspan class="cls-22" x="125.13" y="27.91">t</tspan><tspan x="128.91" y="27.91">o be.</tspan><tspan x="0" y="49.62">Be</tspan><tspan class="cls-40" x="12.11" y="49.62">c</tspan><tspan x="16.93" y="49.62">ause of </tspan><tspan class="cls-28" x="53.88" y="49.62">r</tspan><tspan x="57.79" y="49.62">el</tspan><tspan class="cls-18" x="66.24" y="49.62">a</tspan><tspan x="71.7" y="49.62">ti</tspan><tspan class="cls-22" x="78.18" y="49.62">v</tspan><tspan x="83.32" y="49.62">ely l</tspan><tspan class="cls-34" x="102.34" y="49.62">o</tspan><tspan x="108.42" y="49.62">w l</tspan><tspan class="cls-38" x="122.03" y="49.62">e</tspan><tspan class="cls-17" x="127.76" y="49.62">v</tspan><tspan x="132.9" y="49.62">el of </tspan><tspan x="0" y="63.57">en</tspan><tspan class="cls-44" x="11.9" y="63.57">g</tspan><tspan x="17.15" y="63.57">a</tspan><tspan class="cls-40" x="22.72" y="63.57">g</tspan><tspan x="28.1" y="63.57">eme</tspan><tspan class="cls-49" x="48.96" y="63.57">n</tspan><tspan class="cls-92" x="54.96" y="63.57">t with </tspan><tspan class="cls-42" x="85.1" y="63.57">c</tspan><tspan x="89.92" y="63.57">ompu</tspan><tspan class="cls-35" x="117.56" y="63.57">t</tspan><tspan x="121.33" y="63.57">e</tspan><tspan class="cls-24" x="127.12" y="63.57">r</tspan><tspan x="130.98" y="63.57">s </tspan><tspan class="cls-18" x="138.15" y="63.57">a</tspan><tspan x="143.61" y="63.57">t </tspan><tspan x="0" y="77.52">home, Susan som</tspan><tspan class="cls-33" x="83.13" y="77.52">e</tspan><tspan x="88.85" y="77.52">times misses </tspan><tspan x="0" y="91.48">i</tspan><tspan class="cls-35" x="2.67" y="91.48">t</tspan><tspan x="6.44" y="91.48">ems of n</tspan><tspan class="cls-38" x="47.11" y="91.48">e</tspan><tspan class="cls-31" x="52.84" y="91.48">w</tspan><tspan x="61.05" y="91.48">s or things </tspan><tspan class="cls-17" x="112.48" y="91.48">t</tspan><tspan x="116.26" y="91.48">o act </tspan><tspan x="0" y="105.43">on – particularly when th</tspan><tspan class="cls-30" x="118.33" y="105.43">e</tspan><tspan x="124.05" y="105.43">y </tspan><tspan class="cls-40" x="0" y="119.39">c</tspan><tspan x="4.82" y="119.39">ome in via email or </tspan><tspan class="cls-42" x="97.61" y="119.39">g</tspan><tspan class="cls-33" x="102.99" y="119.39">e</tspan><tspan x="108.71" y="119.39">t lo</tspan><tspan class="cls-47" x="124.04" y="119.39">s</tspan><tspan x="128.45" y="119.39">t in </tspan><tspan class="cls-84" x="0" y="133.34">F</tspan><tspan x="5.03" y="133.34">acebook </tspan><tspan class="cls-37" x="47.59" y="133.34">f</tspan><tspan x="50.85" y="133.34">eeds.</tspan></text><text class="cls-16" transform="translate(185.99 616.37)"><tspan class="cls-93">T</tspan><tspan x="4.63" y="0">ools </tspan><tspan class="cls-17" x="26.74" y="0">t</tspan><tspan x="30.52" y="0">o help her t</tspan><tspan class="cls-94" x="85.06" y="0">r</tspan><tspan x="88.88" y="0">ack wh</tspan><tspan class="cls-49" x="121.7" y="0">a</tspan><tspan x="127.17" y="0">t is </tspan><tspan class="cls-91" x="0" y="13.95">g</tspan><tspan x="5.39" y="13.95">oing on with friends, </tspan><tspan class="cls-95" x="105.25" y="13.95">f</tspan><tspan x="108.57" y="13.95">amily </tspan><tspan x="0" y="27.91">and hobbies in social media </tspan><tspan x="0" y="41.86">without needing </tspan><tspan class="cls-22" x="80.42" y="41.86">t</tspan><tspan x="84.21" y="41.86">o log in all the </tspan><tspan x="0" y="55.82">time.</tspan><tspan x="0" y="77.52">A </tspan><tspan class="cls-20" x="9.36" y="77.52">w</tspan><tspan class="cls-44" x="17.54" y="77.52">a</tspan><tspan x="22.89" y="77.52">y </tspan><tspan class="cls-17" x="30.79" y="77.52">t</tspan><tspan x="34.57" y="77.52">o ensu</tspan><tspan class="cls-28" x="65.88" y="77.52">r</tspan><tspan x="69.78" y="77.52">e th</tspan><tspan class="cls-49" x="88.2" y="77.52">a</tspan><tspan x="93.67" y="77.52">t she does </tspan><tspan x="0" y="91.48">not miss impor</tspan><tspan class="cls-96" x="70.7" y="91.48">t</tspan><tspan class="cls-19" x="74.46" y="91.48">a</tspan><tspan class="cls-57" x="80.03" y="91.48">n</tspan><tspan x="86.03" y="91.48">t emails.</tspan></text><text class="cls-16" transform="translate(360.49 616.37)">Exi<tspan class="cls-47" x="13.38" y="0">s</tspan><tspan x="17.8" y="0">ting al</tspan><tspan class="cls-97" x="46.73" y="0">g</tspan><tspan x="52.12" y="0">orithms in social </tspan><tspan x="0" y="13.95">se</tspan><tspan class="cls-98" x="10.33" y="13.95">r</tspan><tspan x="14.5" y="13.95">vices th</tspan><tspan class="cls-49" x="50.3" y="13.95">a</tspan><tspan x="55.76" y="13.95">t select </tspan><tspan class="cls-40" x="92.52" y="13.95">c</tspan><tspan x="97.34" y="13.95">o</tspan><tspan class="cls-49" x="103.47" y="13.95">n</tspan><tspan class="cls-35" x="109.47" y="13.95">t</tspan><tspan x="113.24" y="13.95">e</tspan><tspan class="cls-57" x="119.03" y="13.95">n</tspan><tspan x="125.03" y="13.95">t </tspan><tspan class="cls-78" x="131.55" y="13.95">f</tspan><tspan x="134.86" y="13.95">or </tspan><tspan x="0" y="27.91">use</tspan><tspan class="cls-75" x="16.44" y="27.91">r</tspan><tspan class="cls-99" x="20.3" y="27.91">s.</tspan><tspan x="0" y="49.62">Email fil</tspan><tspan class="cls-35" x="37.33" y="49.62">t</tspan><tspan x="41.1" y="49.62">ering.</tspan><tspan x="0" y="71.32">Notifi</tspan><tspan class="cls-40" x="26.27" y="71.32">ca</tspan><tspan class="cls-49" x="31.09" y="71.32">t</tspan><tspan x="36.56" y="71.32">ion functionality in </tspan><tspan x="0" y="85.28">social media smartphone ap</tspan><tspan class="cls-38" x="133.1" y="85.28">p</tspan><tspan x="139.15" y="85.28">s.</tspan></text><path class="cls-100" d="M659,567.37" transform="translate(-33.21 -24.97)"/><rect class="cls-101" x="158.78" y="579.06" width="31.13" height="6.87"/><polygon class="cls-5" points="158.78 583.18 179 583.18 179 585.93 189.91 582.5 179 579.06 179 581.82 158.78 581.82 158.78 583.18"/><rect class="cls-101" x="329.99" y="579.06" width="32.49" height="6.87"/><polygon class="cls-5" points="329.99 583.18 351.1 583.18 351.1 585.93 362.48 582.5 351.1 579.06 351.1 581.82 329.99 581.82 329.99 583.18"/></svg>