<svg id="Layer_1" data-name="Layer 1" xmlns="http://www.w3.org/2000/svg" xmlns:xlink="http://www.w3.org/1999/xlink" viewBox="0 0 526.08 715.02"><defs><style>.cls-1,.cls-85{fill:none;}.cls-1,.cls-77,.cls-8{stroke:#3e4999;}.cls-1,.cls-77,.cls-8,.cls-84{stroke-miterlimit:10;}.cls-2,.cls-77,.cls-8,.cls-87{fill:#3e4999;}.cls-3,.cls-5{font-size:14.25px;font-family:SegoePrint, Segoe Print;}.cls-12,.cls-3,.cls-4,.cls-5,.cls-9{fill:#fff;}.cls-5{letter-spacing:-0.06em;}.cls-6{letter-spacing:0em;}.cls-7{letter-spacing:0.01em;}.cls-9{font-size:13.57px;}.cls-13,.cls-87,.cls-9{font-family:Calibri;}.cls-10{letter-spacing:-0.01em;}.cls-11{letter-spacing:-0.01em;}.cls-12{font-size:15.5px;}.cls-12,.cls-88{font-family:Calibri-Bold, Calibri;font-weight:700;}.cls-13,.cls-87{font-size:11.63px;}.cls-13,.cls-84{fill:#1d1d1b;}.cls-14{letter-spacing:-0.02em;}.cls-15{letter-spacing:-0.01em;}.cls-16{letter-spacing:-0.01em;}.cls-17{letter-spacing:-0.02em;}.cls-18{letter-spacing:-0.01em;}.cls-19{letter-spacing:-0.01em;}.cls-20{letter-spacing:-0.02em;}.cls-21{letter-spacing:-0.01em;}.cls-22{letter-spacing:-0.01em;}.cls-23{letter-spacing:-0.02em;}.cls-24{letter-spacing:-0.01em;}.cls-25{letter-spacing:-0.02em;}.cls-26{letter-spacing:0em;}.cls-27{letter-spacing:-0.01em;}.cls-28{letter-spacing:-0.02em;}.cls-29{letter-spacing:-0.02em;}.cls-30{letter-spacing:-0.02em;}.cls-31{letter-spacing:0em;}.cls-32{letter-spacing:0em;}.cls-33{letter-spacing:-0.01em;}.cls-34{letter-spacing:-0.02em;}.cls-35{letter-spacing:-0.03em;}.cls-36{letter-spacing:-0.01em;}.cls-37{letter-spacing:-0.02em;}.cls-38{letter-spacing:-0.01em;}.cls-39{letter-spacing:-0.02em;}.cls-40{letter-spacing:-0.01em;}.cls-41{letter-spacing:-0.02em;}.cls-42{letter-spacing:0em;}.cls-43{letter-spacing:-0.01em;}.cls-44{letter-spacing:-0.01em;}.cls-45{letter-spacing:-0.02em;}.cls-46{letter-spacing:-0.01em;}.cls-47{letter-spacing:-0.01em;}.cls-48{letter-spacing:-0.01em;}.cls-49{letter-spacing:-0.01em;}.cls-50{letter-spacing:-0.01em;}.cls-51{letter-spacing:-0.01em;}.cls-52{letter-spacing:-0.03em;}.cls-53{letter-spacing:-0.02em;}.cls-54{letter-spacing:0em;}.cls-55{letter-spacing:-0.02em;}.cls-56{letter-spacing:-0.02em;}.cls-57{letter-spacing:0em;}.cls-58{letter-spacing:-0.07em;}.cls-59{letter-spacing:-0.06em;}.cls-60{letter-spacing:-0.01em;}.cls-61{letter-spacing:-0.02em;}.cls-62{letter-spacing:-0.09em;}.cls-63{letter-spacing:0em;}.cls-64{letter-spacing:0em;}.cls-65{letter-spacing:0.01em;}.cls-66{letter-spacing:-0.01em;}.cls-67{letter-spacing:-0.01em;}.cls-68{letter-spacing:-0.01em;}.cls-69{letter-spacing:-0.02em;}.cls-70{letter-spacing:0em;}.cls-71{letter-spacing:-0.1em;}.cls-72{letter-spacing:0em;}.cls-73{letter-spacing:-0.01em;}.cls-74{letter-spacing:-0.02em;}.cls-75{letter-spacing:-0.03em;}.cls-76{letter-spacing:0em;}.cls-77{stroke-width:0.75px;}.cls-78{letter-spacing:-0.02em;}.cls-79{letter-spacing:-0.01em;}.cls-80{letter-spacing:0.01em;}.cls-81{letter-spacing:0em;}.cls-82{letter-spacing:-0.05em;}.cls-83{letter-spacing:-0.02em;}.cls-84{stroke:#1d1d1b;}.cls-86{fill:#c6c6c6;}.cls-88{font-size:17.44px;}.cls-89{letter-spacing:-0.07em;}</style></defs><title>PATHY Template - Persona 3 - Phoebe</title><image width="180" height="315" transform="matrix(-0.4, 0, 0, 0.4, 294.07, 191.11)" xlink:href="../../../../Misc/XKCD/xkcd_ponytail.png"/><rect class="cls-1" x="0.5" y="36.85" width="525.08" height="498.46"/><line class="cls-1" x1="0.5" y1="318.95" x2="525.58" y2="318.95"/><rect class="cls-2" x="9.6" y="46.24" width="39.67" height="20.76"/><text class="cls-3" transform="translate(19.29 61.46)">Do</text><path class="cls-4" d="M199,209.68c3.21,0,3.22-5,0-5s-3.23,5,0,5Z" transform="translate(-33.21 -24.97)"/><path class="cls-4" d="M492.66,30c3.22,0,3.23-5,0-5s-3.22,5,0,5Z" transform="translate(-33.21 -24.97)"/><rect class="cls-2" x="268.72" y="46.24" width="151.21" height="20.76"/><text class="cls-3" transform="translate(278.4 61.46)">Feel/Think/Believe</text><rect class="cls-2" x="5.67" y="327.46" width="181.58" height="22.63"/><text class="cls-5" transform="translate(15.35 342.68)">T<tspan class="cls-6" x="8.74" y="0">echnology Expe</tspan><tspan class="cls-7" x="118.26" y="0">r</tspan><tspan class="cls-6" x="125.65" y="0">ience</tspan></text><line class="cls-8" x1="257.39" y1="36.89" x2="258.15" y2="189.16"/><path class="cls-8" d="M357.41,17.56H522.46a3.12,3.12,0,0,1,3.12,3.12V36.85a0,0,0,0,1,0,0H354.31a0,0,0,0,1,0,0V20.67A3.11,3.11,0,0,1,357.41,17.56Z"/><text class="cls-9" transform="translate(360.49 30.69) scale(1.14 1)">A<tspan class="cls-10" x="7.85" y="0">g</tspan><tspan x="14.12" y="0" xml:space="preserve">e: 23   Gender: </tspan><tspan class="cls-11" x="98.26" y="0">F</tspan><tspan x="104.3" y="0">emale</tspan></text><path class="cls-4" d="M147.78,30c3.22,0,3.22-5,0-5s-3.22,5,0,5Z" transform="translate(-33.21 -24.97)"/><path class="cls-8" d="M3.59,15H67a3.13,3.13,0,0,1,3.13,3.13V36.85a0,0,0,0,1,0,0H.5a0,0,0,0,1,0,0V18A3.09,3.09,0,0,1,3.59,15Z"/><text class="cls-12" transform="translate(8.66 30.69) scale(1.14 1)">Phoebe</text><text class="cls-13" transform="translate(14.21 89.69)">I<tspan class="cls-14" x="2.93" y="0">’</tspan><tspan x="5.58" y="0">m a </tspan><tspan class="cls-15" x="25.69" y="0">r</tspan><tspan x="29.59" y="0">ece</tspan><tspan class="cls-16" x="46.08" y="0">n</tspan><tspan x="52.08" y="0">t g</tspan><tspan class="cls-17" x="64.08" y="0">r</tspan><tspan x="67.9" y="0">adu</tspan><tspan class="cls-18" x="85.69" y="0">a</tspan><tspan class="cls-19" x="91.15" y="0">t</tspan><tspan x="94.92" y="0">e </tspan><tspan class="cls-16" x="103.33" y="0">w</tspan><tspan x="111.54" y="0">orking </tspan><tspan class="cls-20" x="143.89" y="0">f</tspan><tspan x="147.2" y="0">or a ac</tspan><tspan class="cls-21" x="178.7" y="0">c</tspan><tspan x="183.52" y="0">ou</tspan><tspan class="cls-16" x="195.76" y="0">n</tspan><tspan class="cls-22" x="201.76" y="0">t</tspan><tspan x="205.52" y="0">ancy </tspan><tspan x="0" y="13.95" xml:space="preserve">firm in London.  I</tspan><tspan class="cls-14" x="80.14" y="13.95">’</tspan><tspan x="82.78" y="13.95">m on the mana</tspan><tspan class="cls-21" x="154.53" y="13.95">g</tspan><tspan x="159.91" y="13.95">eme</tspan><tspan class="cls-16" x="180.77" y="13.95">n</tspan><tspan x="186.77" y="13.95">t </tspan><tspan class="cls-23" x="193.3" y="13.95">f</tspan><tspan x="196.62" y="13.95">a</tspan><tspan class="cls-24" x="202.19" y="13.95">s</tspan><tspan x="206.61" y="13.95">t </tspan><tspan x="0" y="27.91">t</tspan><tspan class="cls-25" x="3.9" y="27.91">r</tspan><tspan x="7.71" y="27.91">ack, meaning th</tspan><tspan class="cls-16" x="82.65" y="27.91">a</tspan><tspan x="88.12" y="27.91">t I m</tspan><tspan class="cls-26" x="109.49" y="27.91">o</tspan><tspan class="cls-27" x="115.57" y="27.91">v</tspan><tspan x="120.71" y="27.91">e a</tspan><tspan class="cls-28" x="134.69" y="27.91">r</tspan><tspan x="138.56" y="27.91">ound ma</tspan><tspan class="cls-29" x="180.51" y="27.91">n</tspan><tspan x="186.4" y="27.91">y di</tspan><tspan class="cls-30" x="203.07" y="27.91">ff</tspan><tspan x="209.57" y="27.91">e</tspan><tspan x="219.41" y="27.91">-</tspan><tspan x="0" y="41.86">e</tspan><tspan class="cls-16" x="5.79" y="41.86">n</tspan><tspan x="11.79" y="41.86">t parts of the business </tspan><tspan class="cls-27" x="118.9" y="41.86">t</tspan><tspan class="cls-31" x="122.69" y="41.86">o learn h</tspan><tspan class="cls-32" x="164.37" y="41.86">o</tspan><tspan x="170.46" y="41.86">w th</tspan><tspan class="cls-33" x="191.41" y="41.86">e</tspan><tspan x="197.12" y="41.86">y </tspan><tspan class="cls-16" x="0" y="55.82">w</tspan><tspan x="8.2" y="55.82">ork.</tspan><tspan x="0" y="77.52">I</tspan><tspan class="cls-14" x="2.93" y="77.52">’</tspan><tspan x="5.58" y="77.52">m cur</tspan><tspan class="cls-15" x="32.57" y="77.52">r</tspan><tspan x="36.48" y="77.52">e</tspan><tspan class="cls-16" x="42.26" y="77.52">n</tspan><tspan x="48.26" y="77.52">tly single, mainly be</tspan><tspan class="cls-21" x="141.6" y="77.52">c</tspan><tspan x="146.42" y="77.52">ause I h</tspan><tspan class="cls-34" x="182.73" y="77.52">a</tspan><tspan class="cls-27" x="188.11" y="77.52">v</tspan><tspan x="193.25" y="77.52">e so </tspan><tspan x="0" y="91.48">little time </tspan><tspan class="cls-27" x="47.98" y="91.48">t</tspan><tspan x="51.76" y="91.48">o do things li</tspan><tspan class="cls-35" x="112.16" y="91.48">k</tspan><tspan x="117.07" y="91.48">e o</tspan><tspan class="cls-36" x="131.62" y="91.48">r</tspan><tspan class="cls-37" x="135.52" y="91.48">g</tspan><tspan x="140.77" y="91.48">anise and </tspan><tspan class="cls-38" x="188.5" y="91.48">g</tspan><tspan x="193.9" y="91.48">o on </tspan><tspan x="0" y="105.43">d</tspan><tspan class="cls-16" x="6.11" y="105.43">a</tspan><tspan class="cls-19" x="11.57" y="105.43">t</tspan><tspan x="15.34" y="105.43">es.</tspan></text><text class="cls-13" transform="translate(275.31 89.69)">I h<tspan class="cls-39" x="11.67" y="0">a</tspan><tspan class="cls-40" x="17.04" y="0">v</tspan><tspan x="22.18" y="0">e a lot of uni</tspan><tspan class="cls-40" x="81.32" y="0">v</tspan><tspan x="86.46" y="0">e</tspan><tspan class="cls-41" x="92.25" y="0">r</tspan><tspan x="96.1" y="0">sity friends n</tspan><tspan class="cls-42" x="156.67" y="0">o</tspan><tspan x="162.75" y="0">w s</tspan><tspan class="cls-21" x="178.24" y="0">c</tspan><tspan class="cls-43" x="183.06" y="0">a</tspan><tspan class="cls-44" x="188.53" y="0">tt</tspan><tspan x="195.78" y="0">e</tspan><tspan class="cls-15" x="201.56" y="0">r</tspan><tspan x="205.46" y="0">ed all </tspan><tspan x="0" y="13.95">a</tspan><tspan class="cls-45" x="5.57" y="13.95">r</tspan><tspan x="9.44" y="13.95">ound – I </tspan><tspan class="cls-46" x="50.5" y="13.95">w</tspan><tspan x="58.69" y="13.95">a</tspan><tspan class="cls-18" x="64.26" y="13.95">n</tspan><tspan x="70.26" y="13.95">t </tspan><tspan class="cls-40" x="76.78" y="13.95">t</tspan><tspan x="80.57" y="13.95">o </tspan><tspan class="cls-46" x="89.33" y="13.95">s</tspan><tspan class="cls-47" x="93.74" y="13.95">t</tspan><tspan class="cls-29" x="97.5" y="13.95">a</tspan><tspan x="102.85" y="13.95">y in </tspan><tspan class="cls-48" x="122.15" y="13.95">t</tspan><tspan x="125.93" y="13.95">ouch via social media </tspan><tspan x="0" y="27.91">(and me</tspan><tspan class="cls-49" x="39.02" y="27.91">e</tspan><tspan x="44.74" y="27.91">t up when </tspan><tspan class="cls-50" x="95.06" y="27.91">w</tspan><tspan x="103.27" y="27.91">e </tspan><tspan class="cls-51" x="111.69" y="27.91">c</tspan><tspan x="116.51" y="27.91">an) but I don’t al</tspan><tspan class="cls-46" x="194.66" y="27.91">w</tspan><tspan class="cls-29" x="202.84" y="27.91">a</tspan><tspan class="cls-43" x="208.2" y="27.91">y</tspan><tspan x="213.35" y="27.91">s </tspan><tspan class="cls-52" x="0" y="41.86">k</tspan><tspan x="4.91" y="41.86">eep on </tspan><tspan class="cls-40" x="40.09" y="41.86">t</tspan><tspan x="43.87" y="41.86">op of wh</tspan><tspan class="cls-18" x="85.48" y="41.86">a</tspan><tspan x="90.94" y="41.86">t people a</tspan><tspan class="cls-15" x="138.25" y="41.86">r</tspan><tspan x="142.15" y="41.86">e up </tspan><tspan class="cls-48" x="165.42" y="41.86">t</tspan><tspan x="169.2" y="41.86">o as ma</tspan><tspan class="cls-29" x="205.57" y="41.86">n</tspan><tspan x="211.46" y="41.86">y of </tspan><tspan x="0" y="55.82">them po</tspan><tspan class="cls-46" x="39.95" y="55.82">s</tspan><tspan x="44.37" y="55.82">t a lot of rubbish on their </tspan><tspan class="cls-53" x="165.08" y="55.82">f</tspan><tspan x="168.33" y="55.82">eeds.</tspan></text><text class="cls-13" transform="translate(313.16 167.49)">I l<tspan class="cls-54" x="8.23" y="0">o</tspan><tspan class="cls-48" x="14.31" y="0">v</tspan><tspan x="19.45" y="0">e </tspan><tspan class="cls-29" x="27.86" y="0">m</tspan><tspan x="36.93" y="0">y job but I </tspan><tspan class="cls-53" x="86.78" y="0">f</tspan><tspan x="90.04" y="0">eel </tspan><tspan class="cls-29" x="106.91" y="0">m</tspan><tspan x="115.98" y="0">y </tspan><tspan class="cls-18" x="123.88" y="0">w</tspan><tspan x="132.08" y="0">ork </tspan><tspan class="cls-21" x="0" y="13.95">c</tspan><tspan x="4.82" y="13.95">onsumes mo</tspan><tspan class="cls-46" x="65.39" y="13.95">s</tspan><tspan x="69.81" y="13.95">t of </tspan><tspan class="cls-55" x="88.64" y="13.95">m</tspan><tspan x="97.72" y="13.95">y time and I h</tspan><tspan class="cls-56" x="161.88" y="13.95">a</tspan><tspan class="cls-40" x="167.25" y="13.95">v</tspan><tspan x="172.39" y="13.95">e </tspan><tspan x="0" y="27.91">t</tspan><tspan class="cls-45" x="3.9" y="27.91">r</tspan><tspan x="7.76" y="27.91">ouble </tspan><tspan class="cls-57" x="37.2" y="27.91">s</tspan><tspan x="41.69" y="27.91">wi</tspan><tspan class="cls-47" x="52.67" y="27.91">t</tspan><tspan x="56.42" y="27.91">ching o</tspan><tspan class="cls-58" x="90.46" y="27.91">ff</tspan><tspan x="96.47" y="27.91" xml:space="preserve">.  The</tspan><tspan class="cls-15" x="122.23" y="27.91">r</tspan><tspan x="126.13" y="27.91">e</tspan><tspan class="cls-59" x="131.92" y="27.91">’</tspan><tspan x="134.11" y="27.91">s al</tspan><tspan class="cls-46" x="149.52" y="27.91">w</tspan><tspan class="cls-29" x="157.71" y="27.91">a</tspan><tspan class="cls-18" x="163.06" y="27.91">y</tspan><tspan x="168.22" y="27.91">s a </tspan><tspan x="0" y="41.86">p</tspan><tspan class="cls-45" x="6.11" y="41.86">r</tspan><tspan x="9.98" y="41.86">oject </tspan><tspan class="cls-60" x="36.12" y="41.86">g</tspan><tspan x="41.51" y="41.86">oing on.</tspan><tspan x="0" y="63.57">While I h</tspan><tspan class="cls-39" x="41.88" y="63.57">a</tspan><tspan class="cls-40" x="47.25" y="63.57">v</tspan><tspan x="52.39" y="63.57">e ma</tspan><tspan class="cls-29" x="75.67" y="63.57">n</tspan><tspan x="81.56" y="63.57">y social ap</tspan><tspan class="cls-57" x="130.27" y="63.57">p</tspan><tspan x="136.32" y="63.57">s th</tspan><tspan class="cls-43" x="153.5" y="63.57">a</tspan><tspan x="158.96" y="63.57">t I use </tspan><tspan x="0" y="77.52">a lot, I</tspan><tspan class="cls-61" x="29.36" y="77.52">’</tspan><tspan x="32" y="77.52">m not </tspan><tspan class="cls-51" x="62.68" y="77.52">c</tspan><tspan x="67.51" y="77.52">o</tspan><tspan class="cls-39" x="73.64" y="77.52">n</tspan><tspan x="79.55" y="77.52">vinced th</tspan><tspan class="cls-43" x="123.03" y="77.52">a</tspan><tspan x="128.49" y="77.52">t th</tspan><tspan class="cls-18" x="145.02" y="77.52">a</tspan><tspan x="150.48" y="77.52">t h</tspan><tspan class="cls-39" x="163.12" y="77.52">a</tspan><tspan class="cls-40" x="168.5" y="77.52">v</tspan><tspan x="173.63" y="77.52">e </tspan><tspan class="cls-29" x="0" y="91.48">m</tspan><tspan x="9.07" y="91.48">y be</tspan><tspan class="cls-46" x="28.86" y="91.48">s</tspan><tspan x="33.28" y="91.48">t i</tspan><tspan class="cls-18" x="42.47" y="91.48">n</tspan><tspan class="cls-19" x="48.47" y="91.48">t</tspan><tspan x="52.24" y="91.48">e</tspan><tspan class="cls-15" x="58.03" y="91.48">r</tspan><tspan x="61.93" y="91.48">e</tspan><tspan class="cls-46" x="67.72" y="91.48">s</tspan><tspan x="72.13" y="91.48">ts </tspan><tspan class="cls-18" x="83.21" y="91.48">a</tspan><tspan x="88.67" y="91.48">t heart and I some</tspan><tspan x="174.97" y="91.48">-</tspan><tspan x="0" y="105.43">times </tspan><tspan class="cls-18" x="28.73" y="105.43">w</tspan><tspan x="36.94" y="105.43">onder if I sha</tspan><tspan class="cls-15" x="98.39" y="105.43">r</tspan><tspan x="102.29" y="105.43">e </tspan><tspan class="cls-48" x="110.7" y="105.43">t</tspan><tspan x="114.48" y="105.43">oo much about </tspan><tspan class="cls-29" x="0" y="119.39">m</tspan><tspan class="cls-18" x="9.07" y="119.39">y</tspan><tspan x="14.23" y="119.39">self with them.</tspan></text><text class="cls-13" transform="translate(10.28 368.78)">I guess I<tspan class="cls-14" x="37.58" y="0">’</tspan><tspan x="40.23" y="0">m wh</tspan><tspan class="cls-16" x="66.57" y="0">a</tspan><tspan x="72.03" y="0">t people </tspan><tspan class="cls-21" x="113.78" y="0">c</tspan><tspan x="118.6" y="0">all a digi</tspan><tspan class="cls-22" x="157.25" y="0">t</tspan><tspan x="161" y="0">al n</tspan><tspan class="cls-16" x="177.98" y="0">a</tspan><tspan x="183.44" y="0">ti</tspan><tspan class="cls-40" x="189.92" y="0">v</tspan><tspan x="195.06" y="0" xml:space="preserve">e.  </tspan><tspan class="cls-62" x="209.04" y="0">T</tspan><tspan x="213.67" y="0">echnology isn’t a big thing in its </tspan><tspan class="cls-42" x="364.76" y="0">o</tspan><tspan x="370.85" y="0">wn rig</tspan><tspan class="cls-18" x="400.1" y="0">h</tspan><tspan x="406.1" y="0">t </tspan><tspan class="cls-20" x="412.62" y="0">f</tspan><tspan x="415.93" y="0">or me, but I </tspan><tspan x="0" y="13.95">suppose I depend on it </tspan><tspan class="cls-20" x="110.23" y="13.95">f</tspan><tspan x="113.54" y="13.95">or </tspan><tspan class="cls-57" x="126.35" y="13.95">e</tspan><tspan class="cls-27" x="132.08" y="13.95">v</tspan><tspan x="137.22" y="13.95">e</tspan><tspan class="cls-63" x="143.01" y="13.95">ry</tspan><tspan x="152.44" y="13.95">thing – </tspan><tspan class="cls-16" x="187.74" y="13.95">w</tspan><tspan x="195.95" y="13.95" xml:space="preserve">ork and social.  While I happily admit th</tspan><tspan class="cls-18" x="382.23" y="13.95">a</tspan><tspan x="387.69" y="13.95">t I don’t use all the </tspan><tspan class="cls-30" x="0" y="27.91">f</tspan><tspan x="3.26" y="27.91">e</tspan><tspan class="cls-16" x="9.05" y="27.91">a</tspan><tspan x="14.51" y="27.91">tu</tspan><tspan class="cls-15" x="24.51" y="27.91">r</tspan><tspan x="28.41" y="27.91">es on </tspan><tspan class="cls-29" x="56.25" y="27.91">m</tspan><tspan x="65.32" y="27.91">y phone (who does, </tspan><tspan class="cls-15" x="160.9" y="27.91">r</tspan><tspan x="164.81" y="27.91">eally?), I am al</tspan><tspan class="cls-24" x="232.49" y="27.91">w</tspan><tspan class="cls-29" x="240.68" y="27.91">a</tspan><tspan class="cls-16" x="246.03" y="27.91">y</tspan><tspan x="251.19" y="27.91">s </tspan><tspan class="cls-52" x="258.36" y="27.91">k</tspan><tspan x="263.27" y="27.91">een </tspan><tspan class="cls-40" x="283.58" y="27.91">t</tspan><tspan x="287.37" y="27.91">o t</tspan><tspan class="cls-63" x="300.02" y="27.91">r</tspan><tspan x="304.13" y="27.91">y out n</tspan><tspan class="cls-57" x="336.9" y="27.91">e</tspan><tspan x="342.63" y="27.91">w ap</tspan><tspan class="cls-64" x="365.25" y="27.91">p</tspan><tspan x="371.3" y="27.91">s and online se</tspan><tspan class="cls-65" x="441.33" y="27.91">r</tspan><tspan x="445.5" y="27.91">vices if th</tspan><tspan class="cls-66" x="490.15" y="27.91">e</tspan><tspan x="495.86" y="27.91">y </tspan><tspan x="0" y="41.86">h</tspan><tspan class="cls-34" x="6.11" y="41.86">a</tspan><tspan class="cls-27" x="11.49" y="41.86">v</tspan><tspan x="16.63" y="41.86">e som</tspan><tspan class="cls-49" x="45.01" y="41.86">e</tspan><tspan x="50.73" y="41.86">thing </tspan><tspan class="cls-40" x="77.62" y="41.86">t</tspan><tspan x="81.4" y="41.86">o o</tspan><tspan class="cls-30" x="96.29" y="41.86">ff</tspan><tspan x="102.79" y="41.86" xml:space="preserve">er me.  If I am </tspan><tspan class="cls-15" x="170.68" y="41.86">r</tspan><tspan x="174.58" y="41.86">eally i</tspan><tspan class="cls-16" x="201.84" y="41.86">n</tspan><tspan class="cls-27" x="207.84" y="41.86">t</tspan><tspan x="211.62" y="41.86">o a particlar app, I will </tspan><tspan class="cls-47" x="318.46" y="41.86">t</tspan><tspan x="322.21" y="41.86">a</tspan><tspan class="cls-52" x="327.78" y="41.86">k</tspan><tspan x="332.69" y="41.86">e time </tspan><tspan class="cls-40" x="365.29" y="41.86">t</tspan><tspan x="369.07" y="41.86">o ensu</tspan><tspan class="cls-15" x="400.39" y="41.86">r</tspan><tspan x="404.29" y="41.86">e th</tspan><tspan class="cls-43" x="422.71" y="41.86">a</tspan><tspan x="428.17" y="41.86">t it </tspan><tspan class="cls-18" x="443.89" y="41.86">w</tspan><tspan x="452.09" y="41.86">or</tspan><tspan class="cls-43" x="462.28" y="41.86">k</tspan><tspan x="467.46" y="41.86">s ju</tspan><tspan class="cls-67" x="483.52" y="41.86">s</tspan><tspan x="487.94" y="41.86">t </tspan><tspan x="0" y="55.82">so.</tspan><tspan x="0" y="77.52">I h</tspan><tspan class="cls-34" x="11.67" y="77.52">a</tspan><tspan class="cls-27" x="17.05" y="77.52">v</tspan><tspan x="22.18" y="77.52">e a no</tspan><tspan class="cls-19" x="51.04" y="77.52">t</tspan><tspan x="54.81" y="77.52">ebook </tspan><tspan class="cls-68" x="86.89" y="77.52">c</tspan><tspan x="91.71" y="77.52">ompu</tspan><tspan class="cls-19" x="119.35" y="77.52">t</tspan><tspan x="123.12" y="77.52">er </tspan><tspan class="cls-20" x="135.59" y="77.52">f</tspan><tspan x="138.89" y="77.52">or </tspan><tspan class="cls-16" x="151.71" y="77.52">w</tspan><tspan x="159.91" y="77.52">ork, but I don’t actually use it as much as I thoug</tspan><tspan class="cls-18" x="388.38" y="77.52">h</tspan><tspan x="394.38" y="77.52">t I </tspan><tspan class="cls-43" x="406.46" y="77.52">w</tspan><tspan x="414.66" y="77.52">ould when I </tspan><tspan class="cls-46" x="472.82" y="77.52">s</tspan><tspan class="cls-47" x="477.23" y="77.52">t</tspan><tspan x="480.99" y="77.52">ar</tspan><tspan class="cls-19" x="490.61" y="77.52">t</tspan><tspan x="494.38" y="77.52">ed </tspan><tspan x="0" y="91.48">– I mainly use it </tspan><tspan class="cls-20" x="76.44" y="91.48">f</tspan><tspan x="79.75" y="91.48">or typing things up and doing admin on the i</tspan><tspan class="cls-18" x="288.87" y="91.48">n</tspan><tspan x="294.87" y="91.48">t</tspan><tspan class="cls-69" x="298.77" y="91.48">r</tspan><tspan x="302.58" y="91.48">an</tspan><tspan class="cls-49" x="314.26" y="91.48">e</tspan><tspan x="319.98" y="91.48">t (some of our admin ap</tspan><tspan class="cls-57" x="433.71" y="91.48">p</tspan><tspan x="439.76" y="91.48">s don’t </tspan><tspan class="cls-18" x="474.71" y="91.48">w</tspan><tspan x="482.92" y="91.48">ork </tspan><tspan x="0" y="105.43" xml:space="preserve">on mobile).  I use </tspan><tspan class="cls-29" x="83.88" y="105.43">m</tspan><tspan x="92.95" y="105.43">y phone </tspan><tspan class="cls-20" x="133.72" y="105.43">f</tspan><tspan x="137.02" y="105.43">or a lot of </tspan><tspan class="cls-29" x="185.67" y="105.43">m</tspan><tspan x="194.75" y="105.43">y </tspan><tspan class="cls-16" x="202.64" y="105.43">w</tspan><tspan x="210.84" y="105.43">ork, particularly </tspan><tspan class="cls-20" x="287.94" y="105.43">f</tspan><tspan x="291.24" y="105.43">or </tspan><tspan class="cls-21" x="304.06" y="105.43">c</tspan><tspan x="308.88" y="105.43">ommuni</tspan><tspan class="cls-21" x="348.48" y="105.43">c</tspan><tspan class="cls-18" x="353.3" y="105.43">at</tspan><tspan x="358.76" y="105.43">ion and </tspan><tspan class="cls-21" x="400.53" y="105.43">c</tspan><tspan x="405.35" y="105.43">ollabo</tspan><tspan class="cls-25" x="434.63" y="105.43">ra</tspan><tspan class="cls-43" x="438.44" y="105.43">t</tspan><tspan x="443.9" y="105.43" xml:space="preserve">ing.  I only </tspan><tspan class="cls-21" x="0" y="119.39">c</tspan><tspan x="4.82" y="119.39">ar</tspan><tspan class="cls-70" x="14.44" y="119.39">r</tspan><tspan x="18.56" y="119.39">y the one phone a</tspan><tspan class="cls-45" x="103.97" y="119.39">r</tspan><tspan x="107.84" y="119.39">ound with me </tspan><tspan class="cls-20" x="176.25" y="119.39">f</tspan><tspan x="179.55" y="119.39">or </tspan><tspan class="cls-21" x="192.37" y="119.39">c</tspan><tspan x="197.19" y="119.39">o</tspan><tspan class="cls-34" x="203.32" y="119.39">n</tspan><tspan class="cls-27" x="209.23" y="119.39">v</tspan><tspan x="214.37" y="119.39">enience, so it runs s</tspan><tspan class="cls-64" x="307.57" y="119.39">e</tspan><tspan class="cls-40" x="313.29" y="119.39">v</tspan><tspan x="318.43" y="119.39">e</tspan><tspan class="cls-25" x="324.22" y="119.39">r</tspan><tspan x="328.03" y="119.39">al </tspan><tspan class="cls-18" x="338.9" y="119.39">w</tspan><tspan x="347.11" y="119.39">ork and pe</tspan><tspan class="cls-41" x="397.52" y="119.39">r</tspan><tspan x="401.38" y="119.39">sonal ap</tspan><tspan class="cls-57" x="440.71" y="119.39">p</tspan><tspan x="446.77" y="119.39">s.</tspan><tspan x="0" y="141.09">I mainly ch</tspan><tspan class="cls-16" x="50.78" y="141.09">a</tspan><tspan x="56.25" y="141.09">t with people using an in</tspan><tspan class="cls-24" x="172.23" y="141.09">s</tspan><tspan class="cls-22" x="176.65" y="141.09">t</tspan><tspan x="180.4" y="141.09">a</tspan><tspan class="cls-16" x="185.97" y="141.09">n</tspan><tspan x="191.97" y="141.09">t messen</tspan><tspan class="cls-21" x="234.56" y="141.09">g</tspan><tspan x="239.94" y="141.09">e</tspan><tspan class="cls-71" x="245.73" y="141.09">r</tspan><tspan class="cls-72" x="248.61" y="141.09" xml:space="preserve">.  I pride </tspan><tspan class="cls-29" x="289.72" y="141.09">m</tspan><tspan class="cls-18" x="298.79" y="141.09">y</tspan><tspan x="303.95" y="141.09">self on being able </tspan><tspan class="cls-40" x="389.54" y="141.09">t</tspan><tspan x="393.32" y="141.09">o select a meme </tspan><tspan class="cls-20" x="473.29" y="141.09">f</tspan><tspan x="476.6" y="141.09">or </tspan><tspan class="cls-57" x="0" y="155.05">e</tspan><tspan class="cls-27" x="5.73" y="155.05">v</tspan><tspan x="10.87" y="155.05">e</tspan><tspan class="cls-63" x="16.65" y="155.05">r</tspan><tspan x="20.77" y="155.05">y oc</tspan><tspan class="cls-68" x="39.71" y="155.05">c</tspan><tspan x="44.53" y="155.05">asion (although I</tspan><tspan class="cls-61" x="123.34" y="155.05">’</tspan><tspan x="125.98" y="155.05">m not su</tspan><tspan class="cls-15" x="167.33" y="155.05">r</tspan><tspan x="171.23" y="155.05">e th</tspan><tspan class="cls-16" x="189.65" y="155.05">a</tspan><tspan x="195.11" y="155.05">t </tspan><tspan class="cls-21" x="201.63" y="155.05">c</tspan><tspan x="206.45" y="155.05">ou</tspan><tspan class="cls-16" x="218.69" y="155.05">n</tspan><tspan x="224.7" y="155.05">ts as ‘</tspan><tspan class="cls-73" x="251.42" y="155.05">t</tspan><tspan x="255.19" y="155.05">echnology </tspan><tspan class="cls-74" x="306.41" y="155.05">e</tspan><tspan x="312.02" y="155.05">xperience’).</tspan></text><rect class="cls-1" x="0.5" y="548.68" width="525.08" height="163.75"/><rect class="cls-2" x="17.35" y="558.17" width="143.15" height="22.63"/><text class="cls-3" transform="translate(58.15 573.12)"><tspan class="cls-75">P</tspan><tspan x="9.65" y="0">roblems</tspan></text><rect class="cls-2" x="189.9" y="558.17" width="143.15" height="22.63"/><text class="cls-3" transform="translate(238.22 573.25)">Needs</text><rect class="cls-2" x="362.48" y="558.17" width="143.15" height="22.63"/><text class="cls-3" transform="translate(372.16 573.39)">Existing <tspan class="cls-76" x="61.71" y="0">S</tspan><tspan x="70.73" y="0">olutions</tspan></text><line class="cls-77" x1="175.68" y1="593.87" x2="176.8" y2="712.49"/><line class="cls-77" x1="345.77" y1="592.92" x2="346.96" y2="712.54"/><text class="cls-13" transform="translate(14.21 603.37)">Lack of time <tspan class="cls-27" x="59.78" y="0">t</tspan><tspan x="63.57" y="0">o </tspan><tspan class="cls-24" x="72.33" y="0">s</tspan><tspan class="cls-22" x="76.74" y="0">t</tspan><tspan class="cls-29" x="80.5" y="0">a</tspan><tspan x="85.85" y="0">y on </tspan><tspan class="cls-40" x="108.62" y="0">t</tspan><tspan x="112.4" y="0">op of </tspan><tspan x="0" y="13.95">social media due </tspan><tspan class="cls-27" x="81.82" y="13.95">t</tspan><tspan x="85.6" y="13.95">o p</tspan><tspan class="cls-15" x="100.47" y="13.95">r</tspan><tspan x="104.37" y="13.95">essu</tspan><tspan class="cls-15" x="125.37" y="13.95">r</tspan><tspan x="129.27" y="13.95">e of </tspan><tspan class="cls-16" x="0" y="27.91">w</tspan><tspan x="8.2" y="27.91">ork.</tspan><tspan x="0" y="49.62">Finds it ha</tspan><tspan class="cls-36" x="48.28" y="49.62">r</tspan><tspan x="52.17" y="49.62">d </tspan><tspan class="cls-40" x="60.91" y="49.62">t</tspan><tspan x="64.69" y="49.62">o </tspan><tspan class="cls-57" x="73.46" y="49.62">s</tspan><tspan x="77.95" y="49.62">wi</tspan><tspan class="cls-22" x="88.93" y="49.62">t</tspan><tspan x="92.68" y="49.62">ch off f</tspan><tspan class="cls-45" x="125.43" y="49.62">r</tspan><tspan x="129.3" y="49.62">om </tspan><tspan class="cls-16" x="0" y="63.57">w</tspan><tspan x="8.2" y="63.57">ork in pe</tspan><tspan class="cls-78" x="49.61" y="63.57">r</tspan><tspan x="53.46" y="63.57">sonal time.</tspan></text><text class="cls-13" transform="translate(185.99 603.37)">Find <tspan class="cls-24" x="22.86" y="0">w</tspan><tspan class="cls-29" x="31.04" y="0">a</tspan><tspan class="cls-16" x="36.4" y="0">y</tspan><tspan x="41.55" y="0">s of </tspan><tspan class="cls-52" x="61.04" y="0">k</tspan><tspan x="65.95" y="0">eeping up with </tspan><tspan x="0" y="13.95">friends on social media th</tspan><tspan class="cls-18" x="121.52" y="13.95">a</tspan><tspan x="126.98" y="13.95">t </tspan><tspan x="0" y="27.91">don’t </tspan><tspan class="cls-21" x="27.78" y="27.91">c</tspan><tspan x="32.6" y="27.91">onsume a lot of time </tspan><tspan class="cls-24" x="0" y="41.86">w</tspan><tspan x="8.18" y="41.86">ading th</tspan><tspan class="cls-45" x="46.75" y="41.86">r</tspan><tspan x="50.61" y="41.86">ough minutiae.</tspan><tspan x="0" y="59.82">Help making a di</tspan><tspan class="cls-46" x="78.44" y="59.82">s</tspan><tspan x="82.86" y="59.82">tinction </tspan><tspan x="0" y="73.77">b</tspan><tspan class="cls-49" x="6.11" y="73.77">e</tspan><tspan x="11.83" y="73.77">t</tspan><tspan class="cls-79" x="15.73" y="73.77">w</tspan><tspan x="23.94" y="73.77">een </tspan><tspan class="cls-16" x="44.25" y="73.77">w</tspan><tspan x="52.45" y="73.77">ork and pe</tspan><tspan class="cls-41" x="102.87" y="73.77">r</tspan><tspan x="106.72" y="73.77">sonal </tspan><tspan x="0" y="87.73">time when using a single d</tspan><tspan class="cls-57" x="124.86" y="87.73">e</tspan><tspan x="130.59" y="87.73">vice </tspan><tspan class="cls-20" x="0" y="101.68">f</tspan><tspan x="3.3" y="101.68">or both.</tspan></text><text class="cls-13" transform="translate(360.49 603.37)">Exi<tspan class="cls-46" x="13.38" y="0">s</tspan><tspan x="17.8" y="0">ting al</tspan><tspan class="cls-60" x="46.73" y="0">g</tspan><tspan x="52.12" y="0">orithms in social </tspan><tspan x="0" y="13.95">se</tspan><tspan class="cls-80" x="10.33" y="13.95">r</tspan><tspan x="14.5" y="13.95">vices th</tspan><tspan class="cls-18" x="50.3" y="13.95">a</tspan><tspan x="55.76" y="13.95">t select </tspan><tspan class="cls-21" x="92.52" y="13.95">c</tspan><tspan x="97.34" y="13.95">o</tspan><tspan class="cls-18" x="103.47" y="13.95">n</tspan><tspan class="cls-19" x="109.47" y="13.95">t</tspan><tspan x="113.24" y="13.95">e</tspan><tspan class="cls-43" x="119.03" y="13.95">n</tspan><tspan x="125.03" y="13.95">t </tspan><tspan class="cls-20" x="131.55" y="13.95">f</tspan><tspan x="134.86" y="13.95">or </tspan><tspan x="0" y="27.91">use</tspan><tspan class="cls-41" x="16.44" y="27.91">r</tspan><tspan class="cls-81" x="20.3" y="27.91">s.</tspan><tspan x="0" y="49.62">Scheduled or manual </tspan><tspan class="cls-82" x="102.33" y="49.62">‘</tspan><tspan x="104.7" y="49.62">do not </tspan><tspan x="0" y="63.57">di</tspan><tspan class="cls-46" x="8.78" y="63.57">s</tspan><tspan x="13.2" y="63.57">turb’ </tspan><tspan class="cls-53" x="38.89" y="63.57">f</tspan><tspan x="42.15" y="63.57">e</tspan><tspan class="cls-43" x="47.94" y="63.57">a</tspan><tspan x="53.4" y="63.57">tu</tspan><tspan class="cls-15" x="63.41" y="63.57">r</tspan><tspan x="67.31" y="63.57">es in ap</tspan><tspan class="cls-57" x="103.36" y="63.57">p</tspan><tspan x="109.41" y="63.57">s used </tspan><tspan class="cls-20" x="0" y="77.52">f</tspan><tspan x="3.3" y="77.52">or </tspan><tspan class="cls-18" x="16.12" y="77.52">w</tspan><tspan x="24.32" y="77.52">ork (i.e. Slack</tspan><tspan class="cls-59" x="86.69" y="77.52">’</tspan><tspan x="88.88" y="77.52">s Do Not </tspan><tspan x="0" y="91.48">Di</tspan><tspan class="cls-46" x="9.82" y="91.48">s</tspan><tspan x="14.24" y="91.48">turb hou</tspan><tspan class="cls-83" x="55.39" y="91.48">r</tspan><tspan x="59.24" y="91.48">s).</tspan></text><path class="cls-84" d="M659,567.37" transform="translate(-33.21 -24.97)"/><rect class="cls-85" x="158.78" y="566.06" width="31.13" height="6.87"/><polygon class="cls-2" points="158.78 570.18 179 570.18 179 572.93 189.91 569.5 179 566.06 179 568.82 158.78 568.82 158.78 570.18"/><rect class="cls-85" x="329.99" y="566.06" width="32.49" height="6.87"/><polygon class="cls-2" points="329.99 570.18 351.1 570.18 351.1 572.93 362.48 569.5 351.1 566.06 351.1 568.82 329.99 568.82 329.99 570.18"/><rect class="cls-86" x="140.32" y="268.6" width="85.31" height="44" rx="7.68"/><polygon class="cls-86" points="209.22 260.31 229.88 252.02 216.33 268.6 188.56 268.6 209.22 260.31"/><text class="cls-87" transform="translate(152.02 283.66)">My name is<tspan class="cls-88"><tspan x="0" y="20.93">Phoebe</tspan></tspan></text><text class="cls-13" transform="translate(14.21 217.69)">My unde<tspan class="cls-36" x="41.95" y="0">r</tspan><tspan x="45.84" y="0">g</tspan><tspan class="cls-25" x="51.32" y="0">r</tspan><tspan x="55.13" y="0">adu</tspan><tspan class="cls-16" x="72.92" y="0">a</tspan><tspan class="cls-19" x="78.39" y="0">t</tspan><tspan x="82.16" y="0">e deg</tspan><tspan class="cls-15" x="107.94" y="0">r</tspan><tspan x="111.84" y="0">ee </tspan><tspan class="cls-24" x="126.04" y="0">w</tspan><tspan x="134.22" y="0">as in </tspan><tspan x="0" y="13.95">Chemi</tspan><tspan class="cls-24" x="30.05" y="13.95">s</tspan><tspan x="34.47" y="13.95">t</tspan><tspan class="cls-63" x="38.37" y="13.95">r</tspan><tspan class="cls-89" x="42.48" y="13.95">y</tspan><tspan x="46.91" y="13.95">, but I quickly </tspan><tspan class="cls-15" x="112.4" y="13.95">r</tspan><tspan x="116.3" y="13.95">ealised th</tspan><tspan class="cls-16" x="162.07" y="13.95">a</tspan><tspan x="167.53" y="13.95">t I </tspan><tspan x="0" y="27.91">didn’t </tspan><tspan class="cls-24" x="30.42" y="27.91">w</tspan><tspan x="38.6" y="27.91">a</tspan><tspan class="cls-16" x="44.17" y="27.91">n</tspan><tspan x="50.18" y="27.91">t </tspan><tspan class="cls-27" x="56.7" y="27.91">t</tspan><tspan x="60.48" y="27.91">o be in a lab </tspan><tspan class="cls-20" x="120.35" y="27.91">f</tspan><tspan x="123.65" y="27.91">or a living.</tspan></text></svg>